{
    "asset" : {
        "generator" : "Khronos glTF Blender I/O v0.9.36",
        "version" : "2.0"
    },
    "scene" : 0,
    "scenes" : [
        {
            "name" : "Scene",
            "nodes" : [
                0
            ]
        }
    ],
    "nodes" : [
        {
            "mesh" : 0,
            "name" : "Torus.006",
            "rotation" : [
                0,
                0,
                -0.7071067690849304,
                0.7071068286895752
            ],
            "scale" : [
                1.0875095129013062,
                1.0875095129013062,
                1.0875095129013062
            ]
        }
    ],
    "materials" : [
        {
            "doubleSided" : true,
            "name" : "Material.004",
            "pbrMetallicRoughness" : {
                "baseColorFactor" : [
                    0.6925535798072815,
                    0.521573543548584,
                    0.050885092467069626,
                    1
                ],
                "metallicFactor" : 0,
                "roughnessFactor" : 0.5
            }
        },
        {
            "doubleSided" : true,
            "name" : "Material.007",
            "pbrMetallicRoughness" : {
                "baseColorFactor" : [
                    0.20507875084877014,
                    0.6239604353904724,
                    0.6724432706832886,
                    1
                ],
                "metallicFactor" : 0,
                "roughnessFactor" : 0.5
            }
        }
    ],
    "meshes" : [
        {
            "name" : "Torus.009",
            "primitives" : [
                {
                    "attributes" : {
                        "POSITION" : 0,
                        "NORMAL" : 1,
                        "TEXCOORD_0" : 2
                    },
                    "indices" : 3,
                    "material" : 0
                },
                {
                    "attributes" : {
                        "POSITION" : 4,
                        "NORMAL" : 5,
                        "TEXCOORD_0" : 6
                    },
                    "indices" : 7,
                    "material" : 1
                }
            ]
        }
    ],
    "accessors" : [
        {
            "bufferView" : 0,
            "componentType" : 5126,
            "count" : 1280,
            "max" : [
                1.0700000524520874,
                0.07000000774860382,
                1.0700000524520874
            ],
            "min" : [
                -1.0700000524520874,
                -0.07000000774860382,
                -1.0700000524520874
            ],
            "type" : "VEC3"
        },
        {
            "bufferView" : 1,
            "componentType" : 5126,
            "count" : 1280,
            "type" : "VEC3"
        },
        {
            "bufferView" : 2,
            "componentType" : 5126,
            "count" : 1280,
            "type" : "VEC2"
        },
        {
            "bufferView" : 3,
            "componentType" : 5123,
            "count" : 1920,
            "type" : "SCALAR"
        },
        {
            "bufferView" : 4,
            "componentType" : 5126,
            "count" : 60,
            "max" : [
                0.5702722072601318,
                0.5100657343864441,
                0.4850963354110718
            ],
            "min" : [
                -0.5702722072601318,
                -0.5100657343864441,
                -0.4850963354110718
            ],
            "type" : "VEC3"
        },
        {
            "bufferView" : 5,
            "componentType" : 5126,
            "count" : 60,
            "type" : "VEC3"
        },
        {
            "bufferView" : 6,
            "componentType" : 5126,
            "count" : 60,
            "type" : "VEC2"
        },
        {
            "bufferView" : 7,
            "componentType" : 5123,
            "count" : 60,
            "type" : "SCALAR"
        }
    ],
    "bufferViews" : [
        {
            "buffer" : 0,
            "byteLength" : 15360,
            "byteOffset" : 0
        },
        {
            "buffer" : 0,
            "byteLength" : 15360,
            "byteOffset" : 15360
        },
        {
            "buffer" : 0,
            "byteLength" : 10240,
            "byteOffset" : 30720
        },
        {
            "buffer" : 0,
            "byteLength" : 3840,
            "byteOffset" : 40960
        },
        {
            "buffer" : 0,
            "byteLength" : 720,
            "byteOffset" : 44800
        },
        {
            "buffer" : 0,
            "byteLength" : 720,
            "byteOffset" : 45520
        },
        {
            "buffer" : 0,
            "byteLength" : 480,
            "byteOffset" : 46240
        },
        {
            "buffer" : 0,
            "byteLength" : 120,
            "byteOffset" : 46720
        }
    ],
    "buffers" : [
        {
            "byteLength" : 46840,
            "uri" : "data:application/octet-stream;base64,"
        }
    ]
}
